<svg width="23" height="23" viewBox="0 0 23 23" fill="none" xmlns="http://www.w3.org/2000/svg">
<path fill-rule="evenodd" clip-rule="evenodd" d="M13.0002 2V0.5H10.0002V2L10.0002 11.3507L7.27197 9.71376C6.5616 9.28754 5.64021 9.51789 5.21399 10.2283C4.78777 10.9386 5.01811 11.86 5.72848 12.2862L10.7019 15.2703C10.7214 15.2825 10.7412 15.2943 10.7612 15.3056C10.8667 15.3655 10.9802 15.4129 11.0996 15.4459C11.2312 15.4824 11.3655 15.5002 11.499 15.5002C11.6338 15.5005 11.7695 15.4825 11.9024 15.4455C12.0214 15.4124 12.1344 15.3651 12.2395 15.3055C12.2594 15.2942 12.2792 15.2825 12.2986 15.2702L17.272 12.2862C17.9823 11.86 18.2127 10.9386 17.7865 10.2283C17.3602 9.51789 16.4389 9.28754 15.7285 9.71376L13.0002 11.3507L13.0002 2ZM3 15H0V21.5C0 22.3284 0.67157 23 1.5 23H21.5C22.3284 23 23 22.3284 23 21.5V15H20V20H3V15Z" fill="#c80815"/>
</svg>
