<svg width="25" height="25" viewBox="0 0 25 25" fill="none" xmlns="http://www.w3.org/2000/svg">
<path fill-rule="evenodd" clip-rule="evenodd" d="M12.5 25C19.4036 25 25 19.4036 25 12.5C25 5.59644 19.4036 0 12.5 0C5.59644 0 0 5.59644 0 12.5C0 19.4036 5.59644 25 12.5 25ZM14.186 18.604C13.8947 18.558 13.749 18.3893 13.749 18.098V10.209L13.427 9.91C12.9057 9.91 12.3307 9.94833 11.702 10.025C11.0887 10.1017 10.5213 10.2167 10 10.37V11.336L11.127 11.52C11.403 11.5507 11.541 11.7117 11.541 12.003V18.098C11.541 18.3893 11.3953 18.558 11.104 18.604L10.115 18.765V19.731H15.152V18.765L14.186 18.604ZM13.427 8.254C13.6877 8.00867 13.818 7.69433 13.818 7.311C13.818 6.91233 13.6877 6.598 13.427 6.368C13.1817 6.12267 12.8597 6 12.461 6C12.047 6 11.7097 6.12267 11.449 6.368C11.2037 6.598 11.081 6.91233 11.081 7.311C11.081 7.69433 11.2037 8.00867 11.449 8.254C11.7097 8.484 12.047 8.599 12.461 8.599C12.8597 8.599 13.1817 8.484 13.427 8.254Z" fill="black"/>
</svg>
