<svg width="23" height="35" viewBox="0 0 23 35" fill="none" xmlns="http://www.w3.org/2000/svg">
<path d="M11.5008 0C5.15928 0 0 5.08703 0 11.3398C0 13.9018 0.851153 16.3211 2.46157 18.3355C2.77015 18.7217 3.10252 19.102 3.42377 19.4697C4.38319 20.5674 5.28917 21.6043 5.61165 22.7705C5.6186 22.7956 5.6793 23.0405 5.67034 23.8741L5.6688 23.9945C5.65907 24.6713 5.6461 25.5978 6.34095 26.2926C6.8168 26.7685 7.4837 27 8.38026 27H14.6001C15.5682 27 16.2641 26.7664 16.7278 26.2859C17.355 25.6361 17.313 24.7968 17.285 24.2412C17.2801 24.143 17.2748 24.0439 17.2736 23.9452C17.2636 23.1107 17.3269 22.8754 17.3295 22.8655C17.6571 21.6995 18.7184 20.4698 19.655 19.3851C19.9674 19.0231 20.2626 18.6812 20.5375 18.3375C22.1485 16.3228 23 13.903 23 11.3399C23.0002 5.08718 17.8416 0 11.5008 0ZM18.7184 16.9229C18.4702 17.233 18.1888 17.5592 17.8909 17.9044C16.799 19.1694 15.5612 20.6032 15.0971 22.2555C15.0309 22.4909 14.9445 22.9247 14.9574 23.9721C14.9589 24.0993 14.9649 24.2272 14.9714 24.3539C14.9764 24.454 14.983 24.5859 14.9824 24.6903C14.9008 24.7034 14.7777 24.7156 14.6001 24.7156H8.38026C8.18319 24.7156 8.06797 24.695 8.00882 24.6795C7.97824 24.5307 7.98256 24.2216 7.98534 24.0267L7.98719 23.8981C7.99831 22.8445 7.9126 22.4074 7.84711 22.17C7.38686 20.5047 6.21384 19.1626 5.17905 17.9786C4.85996 17.6134 4.55833 17.2683 4.28125 16.9214C2.99626 15.3138 2.317 13.3836 2.317 11.3396C2.317 6.34641 6.43702 2.2841 11.5012 2.2841C16.5644 2.2841 20.6838 6.34641 20.6838 11.3396C20.6835 13.3846 20.004 15.3154 18.7184 16.9229Z" fill="#E70503"/>
<path d="M14 32.5C14 33.8807 12.8807 35 11.5 35C10.1193 35 9 33.8807 9 32.5C9 31.1193 10.1193 31.5 11.5 31.5C12.8807 31.5 14 31.1193 14 32.5Z" fill="#E70503"/>
<path fill-rule="evenodd" clip-rule="evenodd" d="M11.5 35C12.8807 35 14 33.8807 14 32.5C14 31.3794 13.2627 31.4191 12.2467 31.4738C12.0109 31.4865 11.7601 31.5 11.5 31.5C11.2399 31.5 10.9891 31.4865 10.7533 31.4738C9.73734 31.4191 9 31.3794 9 32.5C9 33.8807 10.1193 35 11.5 35Z" fill="#E70503"/>
<path fill-rule="evenodd" clip-rule="evenodd" d="M7 29C7 28.4477 7.44772 28 8 28H15C15.5523 28 16 28.4477 16 29C16 29.5523 15.5523 30 15 30H8C7.44772 30 7 29.5523 7 29Z" fill="#E70503"/>
<path fill-rule="evenodd" clip-rule="evenodd" d="M7 32C7 31.4477 7.44772 31 8 31H15C15.5523 31 16 31.4477 16 32C16 32.5523 15.5523 33 15 33H8C7.44772 33 7 32.5523 7 32Z" fill="#E70503"/>
</svg>
