<svg width="155" height="106" viewBox="0 0 155 106" fill="none" xmlns="http://www.w3.org/2000/svg">
<path d="M136.067 0H18.9329C8.49377 0 0 8.55615 0 19.072V86.928C0 97.4439 8.49377 106 18.9329 106H136.067C146.506 106 155 97.4439 155 86.928V19.074C155.002 8.55615 146.508 0 136.067 0ZM126.816 12.4423L77.5 44.448L28.1843 12.4423H126.816ZM136.067 93.5598H18.9329C15.3036 93.5598 12.3516 90.584 12.3516 86.9301V19.4266L73.6895 59.1589C73.7719 59.2108 73.8604 59.246 73.9448 59.2937C74.0333 59.3435 74.1239 59.3912 74.2145 59.4368C74.69 59.6836 75.18 59.8827 75.6802 60.0133C75.7317 60.0278 75.7831 60.034 75.8346 60.0465C76.3842 60.1771 76.9401 60.258 77.4959 60.258H77.5C77.5041 60.258 77.5082 60.258 77.5082 60.258C78.0641 60.258 78.6199 60.1792 79.1695 60.0465C79.221 60.034 79.2725 60.0278 79.3239 60.0133C79.8242 59.8827 80.312 59.6836 80.7896 59.4368C80.8802 59.3912 80.9708 59.3435 81.0593 59.2937C81.1437 59.246 81.2322 59.2108 81.3146 59.1589L142.653 19.4266V86.928C142.65 90.584 139.696 93.5598 136.067 93.5598Z" fill="white"/>
</svg>
