<svg width="27" height="25" viewBox="0 0 27 25" fill="none" xmlns="http://www.w3.org/2000/svg">
<path fill-rule="evenodd" clip-rule="evenodd" d="M7.31833 6.80998C6.48121 7.1478 6.48485 8.33424 7.32402 8.66693L10.6314 9.97811C11.0142 10.1299 11.3177 10.4323 11.4709 10.8146L12.809 14.154C13.1457 14.9941 14.3362 14.9905 14.6678 14.1483L15.9768 10.8231C16.1292 10.4358 16.4358 10.1293 16.8231 9.97679L20.1483 8.66781C20.9905 8.33628 20.9941 7.14571 20.1539 6.80906L16.8146 5.47095C16.4323 5.31778 16.1298 5.0142 15.9781 4.63138L14.6669 1.32405C14.3342 0.484882 13.1478 0.481248 12.8099 1.31837L11.4695 4.6399C11.3171 5.01764 11.0176 5.31713 10.6399 5.46957L7.31833 6.80998ZM12 19C12 22.3137 9.31371 25 6 25C2.68629 25 0 22.3137 0 19C0 15.6863 2.68629 13 6 13C9.31371 13 12 15.6863 12 19ZM19.201 14.25C19.7783 13.25 21.2217 13.25 21.799 14.25L26.5622 22.5C27.1395 23.5 26.4178 24.75 25.2631 24.75H15.7369C14.5822 24.75 13.8605 23.5 14.4378 22.5L19.201 14.25Z" fill="black"/>
</svg>
