<svg width="1162" height="14" viewBox="0 0 1162 14" fill="none" xmlns="http://www.w3.org/2000/svg">
<path d="M1302.91 9.00151C1306.01 6.50101 1309.12 4 1315.33 4C1321.53 4 1324.64 6.49899 1327.74 8.99849C1330.84 11.499 1333.95 14 1340.16 14V0H0V14C5.58904 14 8.44037 11.6048 11.3521 9.15885C14.3898 6.60704 17.4933 4 23.84 4C30.0563 4 33.1637 6.50101 36.2706 9.00151C39.3762 11.501 42.4812 14 48.69 14C54.9 14 58.0075 11.5 61.115 9C64.2225 6.5 67.33 4 73.54 4C79.75 4 82.855 6.5 85.96 9C89.065 11.5 92.17 14 98.38 14C104.59 14 107.695 11.5 110.8 9C113.905 6.5 117.01 4 123.22 4C129.43 4 132.535 6.5 135.64 9C138.745 11.5 141.85 14 148.06 14C154.27 14 157.372 11.5 160.475 9C163.577 6.5 166.68 4 172.89 4C179.1 4 182.205 6.5 185.31 9C188.415 11.5 191.52 14 197.73 14C203.94 14 207.035 11.5 210.13 9C213.225 6.5 216.32 4 222.53 4C228.74 4 231.845 6.5 234.95 9C238.055 11.5 241.16 14 247.37 14C253.58 14 256.685 11.5 259.79 9C262.895 6.5 266 4 272.21 4C278.42 4 281.525 6.5 284.63 9C287.735 11.5 290.84 14 297.05 14C303.26 14 306.365 11.5 309.47 9C312.575 6.5 315.68 4 321.89 4C328.1 4 331.205 6.5 334.31 9C337.415 11.5 340.52 14 346.73 14C352.94 14 356.045 11.5 359.15 9C362.255 6.5 365.36 4 371.57 4C377.78 4 380.885 6.5 383.99 9C387.095 11.5 390.2 14 396.41 14C402.62 14 405.725 11.5 408.83 9C411.935 6.5 415.04 4 421.25 4C427.46 4 430.565 6.5 433.67 9C436.775 11.5 439.88 14 446.09 14C452.3 14 455.405 11.5 458.51 9C461.615 6.5 464.72 4 470.93 4C477.14 4 480.245 6.5 483.35 9C486.455 11.5 489.56 14 495.77 14C501.98 14 505.085 11.5 508.19 9C511.295 6.5 514.4 4 520.61 4C526.82 4 529.925 6.5 533.03 9C536.135 11.5 539.24 14 545.45 14C551.661 14 554.769 11.499 557.876 8.99849C560.981 6.49899 564.086 4 570.29 4C576.494 4 579.596 6.49899 582.699 8.99849C585.804 11.499 588.909 14 595.12 14C601.331 14 604.439 11.499 607.546 8.99849C610.651 6.49899 613.756 4 619.96 4C626.165 4 629.27 6.5 632.375 9C635.48 11.5 638.585 14 644.79 14C650.994 14 654.096 11.501 657.199 9.00151C660.304 6.50101 663.409 4 669.62 4C675.831 4 678.939 6.50101 682.046 9.00151C685.151 11.501 688.256 14 694.46 14C700.664 14 703.766 11.501 706.869 9.00151C709.974 6.50101 713.079 4 719.29 4C725.501 4 728.609 6.50101 731.716 9.00151C734.821 11.501 737.926 14 744.13 14C750.335 14 753.44 11.5 756.545 9C759.65 6.5 762.755 4 768.96 4C775.165 4 778.27 6.5 781.375 9C784.48 11.5 787.585 14 793.79 14C799.994 14 803.096 11.501 806.199 9.00151C809.304 6.50101 812.409 4 818.62 4C824.83 4 827.935 6.5 831.04 9C834.145 11.5 837.25 14 843.46 14C849.67 14 852.775 11.5 855.88 9C858.985 6.5 862.09 4 868.3 4C874.51 4 877.615 6.5 880.72 9C883.825 11.5 886.93 14 893.14 14C899.351 14 902.459 11.499 905.566 8.99849C908.671 6.49899 911.776 4 917.98 4C924.184 4 927.286 6.49899 930.389 8.99849C933.494 11.499 936.599 14 942.81 14C949.02 14 952.125 11.5 955.23 9C958.335 6.5 961.44 4 967.65 4C973.861 4 976.969 6.50101 980.076 9.00151C983.181 11.501 986.286 14 992.49 14C998.694 14 1001.8 11.501 1004.9 9.00151C1008 6.50101 1011.11 4 1017.32 4C1023.53 4 1026.64 6.501 1029.75 9.0015C1032.85 11.501 1035.96 14 1042.16 14C1048.36 14 1051.47 11.501 1054.57 9.00151C1057.67 6.50101 1060.78 4 1066.99 4C1073.2 4 1076.31 6.50101 1079.42 9.00151C1082.52 11.501 1085.63 14 1091.83 14C1098.03 14 1101.14 11.501 1104.24 9.00151C1107.34 6.50101 1110.45 4 1116.66 4C1122.87 4 1125.98 6.50101 1129.09 9.00151C1132.19 11.501 1135.3 14 1141.5 14C1147.7 14 1150.81 11.501 1153.91 9.00151C1157.01 6.50101 1160.12 4 1166.33 4C1172.54 4 1175.65 6.50101 1178.76 9.00151C1181.86 11.501 1184.97 14 1191.17 14C1197.37 14 1200.48 11.501 1203.58 9.00151C1206.68 6.50101 1209.79 4 1216 4C1222.21 4 1225.32 6.50101 1228.43 9.00151C1231.53 11.501 1234.64 14 1240.84 14C1247.04 14 1250.15 11.5 1253.26 9C1256.36 6.5 1259.47 4 1265.67 4C1271.88 4 1274.98 6.5 1278.08 9C1281.19 11.5 1284.29 14 1290.5 14C1296.7 14 1299.81 11.501 1302.91 9.00151Z" fill="url(#paint0_linear_156_84)"/>
<defs>
<linearGradient id="paint0_linear_156_84" x1="670.08" y1="14" x2="670.08" y2="0" gradientUnits="userSpaceOnUse">
<stop stop-opacity="1"/>
<stop offset="1"/>
</linearGradient>
</defs>
</svg>
