<?xml version="1.0" encoding="UTF-8"?>
<svg id="Layer_2" data-name="Layer 2" xmlns="http://www.w3.org/2000/svg" viewBox="0 0 255.57 447.97">
  <defs>
    <style>
      .cls-1 {
        opacity: .8;
      }

      .cls-1, .cls-2 {
        fill: #000;
        stroke-width: 0px;
      }
    </style>
  </defs>
  <g id="Layer_4" data-name="Layer 4">
    <g>
      <g>
        <path class="cls-1" d="M171.16,446.85l-15.89,1.1c-3.12.22-5.96-1.81-6.77-4.83l-16.62-61.87c-.98-3.65,1.32-7.36,5.02-8.11l35.1-7.14c4.16-.85,8.01,2.42,7.85,6.66l-2.58,67.91c-.13,3.34-2.75,6.05-6.09,6.28Z"/>
        <path class="cls-1" d="M84.41,446.55l15.89,1.1c3.12.22,5.96-1.81,6.77-4.83l16.62-61.87c.98-3.65-1.32-7.36-5.02-8.11l-35.1-7.14c-4.16-.85-8.01,2.42-7.85,6.66l2.58,67.91c.13,3.34,2.75,6.05,6.09,6.28Z"/>
      </g>
      <path class="cls-2" d="M166.24,211.35c33.46-14.68,56.83-48.1,56.83-86.98C223.08,47.08,127.79.08,127.79.08v-.08S32.49,47,32.49,124.29c0,38.88,23.37,72.3,56.83,86.98,3.52,1.54-18.85,59.03-26.17,86-6.6,24.33-6.89,39.49,1.08,58.04,10.09,23.49,35.79,31.32,62.08,31.95.48.01.98.02,1.47.02v.07h0c.49,0,.99,0,1.47,0,26.29-.63,51.98-8.47,62.08-31.95,7.97-18.54,7.68-33.71,1.08-58.04-7.32-26.98-29.68-84.46-26.17-86ZM97.1,158.85c-7.46-.18-13.36-6.37-13.18-13.83.18-7.46,6.37-13.36,13.83-13.18,7.46.18,13.36,6.37,13.18,13.83-.18,7.46-6.37,13.36-13.83,13.18ZM127.79,184.08v-.08c-11.32-.27-21.07,7.55-20.89.09.18-7.46,9.57-16.37,20.89-16.09v.08c11.32-.27,20.71,8.64,20.89,16.09.18,7.46-9.57-.37-20.89-.09ZM144.64,145.75c-.18-7.46,5.72-13.65,13.18-13.83,7.46-.18,13.65,5.72,13.83,13.18.18,7.46-5.72,13.65-13.18,13.83-7.46.18-13.65-5.72-13.83-13.18Z"/>
      <g>
        <path class="cls-1" d="M90.3,211c1.18.61,7.42,12.18-1.72,26.07-7.89,11.99-9.65,19.05-11.28,17.93L9.51,208.92c-8.35-5.7-11.74-15.41-7.99-22.89h0c4.25-8.46,16.05-11.04,26.23-5.72l62.54,30.69Z"/>
        <path class="cls-1" d="M165.28,211.87c-1.18.61-7.42,12.18,1.72,26.07,7.89,11.99,9.65,19.05,11.28,17.93l67.79-46.08c8.35-5.7,11.74-15.41,7.99-22.89h0c-4.25-8.46-16.05-11.04-26.23-5.72l-62.54,30.69Z"/>
      </g>
    </g>
  </g>
</svg>