<svg width="168" height="299" viewBox="0 0 168 299" fill="none" xmlns="http://www.w3.org/2000/svg">
<path fill-rule="evenodd" clip-rule="evenodd" d="M41.3383 151C41.1471 150.748 40.9853 150.442 40.8332 150.088C33.9242 133.998 26.9847 117.922 20.045 101.846C19.5153 100.619 18.9899 99.3897 18.4645 98.1607C16.426 93.3923 14.3874 88.6238 12.0983 83.9666C11.277 82.2958 10.3805 80.6933 8.92975 79.4442C8.09423 78.7248 7.72233 75.3527 8.23292 74.3886C8.58461 73.7245 9.18773 73.6724 9.79852 73.6198C9.86963 73.6136 9.94083 73.6075 10.0118 73.6004C14.9489 73.1049 16.9631 71.1284 16.9789 66.2241C17.0397 47.3297 17.0312 28.435 16.9803 9.54062C16.9684 5.12053 14.8019 2.95868 10.3359 2.48873C10.1924 2.47363 10.0486 2.46143 9.90468 2.44924C9.63762 2.42661 9.37062 2.40398 9.10647 2.3628C8.46112 2.2622 8.16022 1.83259 8.15653 1.21257C8.15256 0.542969 8.54799 0.222436 9.19336 0.19454C9.67381 0.173778 10.1551 0.163536 10.636 0.163461C22.7344 0.16146 34.8329 0.161284 46.9313 0.161573C47.1002 0.161578 47.2692 0.164664 47.4381 0.167749C47.6816 0.172196 47.9251 0.176642 48.1684 0.171866C48.9785 0.155974 49.5003 0.446937 49.4784 1.35029C49.4587 2.16296 48.926 2.39103 48.2407 2.40753C47.7338 2.41974 47.226 2.42016 46.7182 2.42059C45.7811 2.42137 44.8442 2.42215 43.9131 2.49703C40.3789 2.78125 37.394 4.41657 37.3598 8.68288C37.3539 9.42047 37.2912 10.1577 37.2284 10.8949C37.1631 11.6633 37.0977 12.4316 37.0967 13.2001C37.0874 20.1197 37.0874 27.0394 37.0875 33.9591C37.0875 42.1551 37.0875 50.3512 37.0722 58.5472C37.0669 61.3692 37.2065 64.1746 37.5036 66.9769C37.7275 69.0885 38.9994 70.8283 40.9714 71.0403C47.7477 71.7686 54.5815 72.0898 61.2937 70.8117C68.0501 69.5251 72.2244 64.808 75.1155 58.875C75.9016 57.2617 76.5592 55.5857 77.2168 53.91C77.4881 53.2186 77.7594 52.5272 78.0397 51.8402C78.135 51.6065 78.2131 51.3611 78.2909 51.1162C78.6002 50.1434 78.9063 49.1803 80.286 48.9994C80.8184 48.9295 80.9097 48.3418 80.837 47.8189C78.5297 31.2345 86.4951 19.3517 98.5513 9.4116C102.061 6.51768 106.028 4.3108 110.278 2.61764C123.397 -2.60921 135.062 0.213552 145.518 9.10585C152.199 14.787 156.175 22.1068 157.648 30.755C158.875 37.961 157.217 44.651 153.915 51.0325C148.628 61.2511 140.829 68.9136 130.519 74.0266C130.039 74.2647 129.582 74.5499 129.144 75.2198C129.917 75.2587 130.691 75.3054 131.465 75.3521C133.173 75.4552 134.882 75.5583 136.591 75.5779C141.746 75.637 146.903 75.6477 152.057 75.5796C153.644 75.5587 154.253 76.065 154.238 77.6981C154.197 82.1611 154.207 86.6245 154.218 91.088C154.222 92.9457 154.227 94.8034 154.227 96.6611C154.227 96.6964 154.227 96.7318 154.227 96.7671C154.23 97.6401 154.232 98.489 152.954 98.5733C151.785 98.6504 151.24 98.2138 150.967 97.0418C150.58 95.377 150.014 93.7477 149.44 92.1332C146.866 84.893 141.142 81.8587 134.032 80.8914C129.993 80.3418 125.917 80.3852 121.846 80.4285C120.899 80.4386 119.952 80.4487 119.006 80.4513C116.554 80.4581 116.176 80.8614 116.172 83.376C116.161 91.5522 116.158 99.7285 116.171 107.905C116.176 110.613 116.346 110.758 118.939 110.713C125.66 110.597 130.131 106.874 132.028 99.736C132.43 98.2249 132.727 96.6851 133.024 95.1471C133.078 94.8687 133.131 94.5903 133.186 94.3121C133.374 93.3495 133.85 92.9057 134.874 92.9448C136.06 92.99 136.083 93.7654 136.108 94.5839C136.109 94.6102 136.11 94.6364 136.111 94.6627C136.403 103.842 136.357 113.023 136.311 122.203C136.297 125.111 136.282 128.019 136.278 130.926C136.278 131.033 136.281 131.142 136.284 131.253C136.306 132.132 136.331 133.097 134.908 133.214C133.333 133.344 133.177 132.267 133.026 131.229C133.02 131.188 133.014 131.146 133.008 131.105C132.384 126.884 130.982 123.016 128.233 119.67C125.503 116.35 121.647 115.97 117.815 115.609C116.643 115.499 116.211 116.591 116.213 117.625C116.216 119.14 116.218 120.656 116.22 122.171C116.229 128.9 116.238 135.629 116.376 142.355C116.428 144.899 117.982 146.598 120.413 146.898C128.052 147.838 135.645 147.669 142.916 144.779C149.674 142.093 153.799 136.857 156.412 130.268C156.64 129.694 156.862 129.116 157.052 128.529C157.355 127.592 157.942 127.227 158.933 127.413C160.101 127.632 160.063 128.482 159.942 129.309C159.611 131.569 159.252 133.824 158.893 136.08C158.789 136.736 158.684 137.391 158.581 138.047C158.398 139.2 158.21 140.352 158.021 141.503C157.568 144.274 157.115 147.045 156.749 149.827C156.684 150.319 156.575 150.705 156.404 151H168V299H0V151H41.3383ZM83.9295 151C83.9019 150.888 83.8872 150.76 83.887 150.615C83.886 149.677 84.4928 149.5 85.2517 149.472C85.6965 149.455 86.1415 149.452 86.5864 149.449C87.9878 149.44 89.3873 149.431 90.7688 148.993C93.7286 148.055 95.3248 146.232 95.372 143.166C95.6752 123.45 95.6773 103.733 95.3855 84.0163C95.3436 81.1911 93.5577 79.684 91.1502 78.7821C85.9248 76.8245 80.3029 78.6043 77.1507 83.2646C74.3967 87.3361 72.4052 91.807 70.416 96.2725C70.0578 97.0766 69.6997 97.8805 69.3373 98.6819C61.556 115.886 53.8121 133.107 46.0952 150.34C45.9756 150.607 45.8414 150.824 45.6936 151H83.9295ZM145.393 25.2537C144.343 27.0395 143.098 28.6726 141.773 30.2538C131.066 41.5227 120.176 52.1966 109.143 62.7262C107.346 64.4417 105.221 65.6699 102.812 66.47C100.187 67.3417 97.8876 66.832 95.8764 65.1539C89.848 60.1241 89.6543 56.6707 93.1692 51.3649C96.7726 45.9255 101.366 41.3332 105.951 36.748C106.417 36.2824 106.883 35.8168 107.347 35.3505C114.133 28.5378 120.978 21.7841 128.146 15.3689C130.407 13.3456 132.779 11.5128 135.821 10.7161C137.149 10.3681 138.376 10.4069 139.653 10.7898C146.121 12.7292 148.789 19.4731 145.393 25.2537ZM68.9599 87.5459C68.8364 87.9118 68.7131 88.2771 68.6016 88.6433C63.8269 99.9657 58.8628 110.94 53.9458 121.811C53.1473 123.576 52.35 125.339 51.555 127.1C50.2488 126.981 49.9674 126.256 49.7122 125.598C49.6761 125.505 49.6405 125.413 49.6026 125.325L48.8814 123.642C43.476 111.027 38.0705 98.4122 32.7118 85.7777C30.3819 80.2842 31.7014 78.3621 37.725 78.2272C37.9201 78.2228 38.1176 78.2261 38.3148 78.2293C39.4621 78.2483 40.5986 78.2671 41.1868 76.7813C41.4022 76.2373 42.0513 76.2526 42.6174 76.266C42.7036 76.2681 42.7878 76.2701 42.8683 76.2701C47.8811 76.2682 52.8938 76.2772 57.9065 76.2923C57.9874 76.2925 58.0719 76.2904 58.1581 76.2883C58.6523 76.276 59.2029 76.2623 59.4453 76.6813C60.236 78.0481 61.4907 78.167 62.7504 78.2863C63.0354 78.3133 63.3207 78.3403 63.6009 78.3818C67.1391 78.9059 69.4178 80.6274 69.7294 83.2559C69.9058 84.7443 69.4316 86.1489 68.9599 87.5459ZM81.5454 53.7763C81.6033 53.6358 81.6612 53.4954 81.7105 53.3539C82.214 54.2387 82.696 55.1262 83.175 56.0084C84.7567 58.9211 86.3064 61.775 88.4947 64.2759C92.0726 68.3649 96.1675 71.7322 101.027 74.1689C101.104 74.2074 101.185 74.2421 101.266 74.2772C101.621 74.4299 101.996 74.591 102.169 75.1151C101.793 75.7362 101.18 75.6994 100.596 75.6644C100.459 75.6562 100.324 75.6481 100.193 75.6486C94.1443 75.6693 88.0949 75.6754 82.0457 75.6514C79.3371 75.6407 78.8879 75.2252 79.1761 72.4665C79.6841 67.6029 80.2764 62.748 80.8687 57.8934C80.9989 56.8267 81.129 55.76 81.2582 54.6933C81.2961 54.3806 81.4208 54.0785 81.5454 53.7763ZM6 157H162V293H6V157Z" fill="url(#paint0_linear_149_78)"/>
<defs>
<linearGradient id="paint0_linear_149_78" x1="84" y1="0" x2="84" y2="299" gradientUnits="userSpaceOnUse">
<stop stop-opacity="0.5"/>
<stop offset="1"/>
</linearGradient>
</defs>
</svg>
