<?xml version="1.0" encoding="UTF-8"?>
<svg id="Layer_2" data-name="Layer 2" xmlns="http://www.w3.org/2000/svg" xmlns:xlink="http://www.w3.org/1999/xlink" viewBox="0 0 25 51.46">
  <defs>
    <style>
      .cls-1 {
        fill: url(#linear-gradient);
        stroke-width: 0px;
      }
    </style>
    <linearGradient id="linear-gradient" x1="12.5" y1="51.46" x2="12.5" y2="0" gradientUnits="userSpaceOnUse">
      <stop offset="0" stop-color="#000"/>
      <stop offset="1" stop-color="#000" stop-opacity=".5"/>
    </linearGradient>
  </defs>
  <g id="Layer_2-2" data-name="Layer 2">
    <path class="cls-1" d="M18.24,27.74s0,0,0,0c4.02-2.08,6.77-6.26,6.77-11.1,0-7.04-7.5-16.63-7.5-16.63C17.5,0,0,2.84,0,16.63c0,5.85,4.02,10.74,9.44,12.11-1.76,3.22-3.72,7.39-4.61,10.99-.8,3.25-.79,5.26.33,7.7,1.41,3.08,4.85,4.04,8.34,4.04,3.25,0,7.73-.82,9.28-3.68,1.77-3.27.75-6.23-.28-8.89-.88-2.27-3.29-7.84-4.27-11.16ZM12.93,20.43c.72,0,1.3.58,1.3,1.3s-.58,1.3-1.3,1.3-1.3-.58-1.3-1.3.58-1.3,1.3-1.3ZM6.41,23.04c-.72,0-1.3-.58-1.3-1.3s.58-1.3,1.3-1.3,1.3.58,1.3,1.3-.58,1.3-1.3,1.3Z"/>
  </g>
</svg>