<?xml version="1.0" encoding="UTF-8"?>
<svg id="Layer_2" data-name="Layer 2" xmlns="http://www.w3.org/2000/svg" xmlns:xlink="http://www.w3.org/1999/xlink" viewBox="0 0 93.66 105.87">
  <defs>
    <style>
      .cls-1 {
        fill: url(#linear-gradient);
      }

      .cls-1, .cls-2, .cls-3, .cls-4, .cls-5, .cls-6 {
        stroke-width: 0px;
      }

      .cls-2 {
        fill: url(#linear-gradient-4);
      }

      .cls-3 {
        fill: url(#linear-gradient-2);
      }

      .cls-4 {
        fill: url(#linear-gradient-3);
      }

      .cls-5 {
        fill: url(#linear-gradient-5);
      }

      .cls-6 {
        fill: url(#linear-gradient-6);
      }
    </style>
    <linearGradient id="linear-gradient" x1="46.83" y1="34.82" x2="46.83" y2="0" gradientUnits="userSpaceOnUse">
      <stop offset="0" stop-color="#000"/>
      <stop offset="1" stop-color="#000" stop-opacity=".5"/>
    </linearGradient>
    <linearGradient id="linear-gradient-2" x1="47.6" y1="51.63" x2="47.6" y2="30.43" xlink:href="#linear-gradient"/>
    <linearGradient id="linear-gradient-3" x1="36.14" y1="66.53" x2="36.14" y2="46.66" xlink:href="#linear-gradient"/>
    <linearGradient id="linear-gradient-4" x1="25.07" y1="79.32" x2="25.07" y2="63.66" xlink:href="#linear-gradient"/>
    <linearGradient id="linear-gradient-5" x1="27.65" y1="93.84" x2="27.65" y2="83.52" xlink:href="#linear-gradient"/>
    <linearGradient id="linear-gradient-6" x1="30.99" y1="105.87" x2="30.99" y2="99.37" xlink:href="#linear-gradient"/>
  </defs>
  <g id="Layer_2-2" data-name="Layer 2">
    <g id="Layer_1-2" data-name="Layer 1-2">
      <g>
        <path class="cls-1" d="M73.1,34.82c-8.4,0-18.72-1.15-29.41-3.44C27.65,27.95-2.34,18.59.15,7.51,1.1,2.93,6.83.45,17.33.06c8.98-.38,20.43.95,32.47,3.44,16.23,3.44,46.03,12.8,43.73,23.87-.95,4.58-6.68,7.07-17.19,7.45h-3.25,0ZM20.39,5.8h-2.86c-9.36.38-11.65,2.48-11.84,2.86-.57,2.48,12.6,11.46,39.34,17.19,11.46,2.48,22.54,3.63,30.94,3.25,9.36-.38,11.65-2.29,11.84-2.86.57-2.48-12.6-11.46-39.34-17.19-10.12-2.1-20.05-3.25-28.07-3.25h0Z"/>
        <path class="cls-3" d="M67.37,51.63c-22.15,0-45.83-6.11-60.16-16.61l3.44-4.58c17.76,12.99,51.18,18.91,76.2,13.56l1.15,5.54c-6.49,1.34-13.37,2.1-20.63,2.1h0Z"/>
        <path class="cls-4" d="M55.15,66.53c-19.86,0-33.8-4.39-48.89-15.09l3.25-4.77c16.61,11.65,31.32,15.28,56.15,13.56l.38,5.73c-3.63.38-7.26.57-10.89.57h0Z"/>
        <path class="cls-2" d="M38.72,79.32c-15.85,0-24.06-5.54-31.32-11.27l3.63-4.39c7.26,5.73,14.9,10.69,31.32,9.93l.38,5.73h-4.01,0Z"/>
        <path class="cls-5" d="M37,93.84c-7.45,0-13.18-.95-18.72-6.11l3.82-4.2c4.2,3.82,8.4,4.58,14.9,4.58v5.73h0Z"/>
        <path class="cls-6" d="M34.14,105.87c-2.48,0-4.77-.76-6.3-2.1l3.82-4.39c.57.57,1.34.76,2.48.76v5.73h0Z"/>
      </g>
    </g>
  </g>
</svg>