<?xml version="1.0" encoding="UTF-8"?>
<svg id="Layer_2" data-name="Layer 2" xmlns="http://www.w3.org/2000/svg" xmlns:xlink="http://www.w3.org/1999/xlink" viewBox="0 0 122.92 165.3">
  <defs>
    <style>
      .cls-1 {
        fill: url(#linear-gradient);
        stroke-width: 0px;
      }
    </style>
    <linearGradient id="linear-gradient" x1="61.46" y1="165.3" x2="61.46" y2="0" gradientUnits="userSpaceOnUse">
      <stop offset="0" stop-color="#000"/>
      <stop offset="1" stop-color="#000" stop-opacity=".5"/>
    </linearGradient>
  </defs>
  <g id="Layer_2-2" data-name="Layer 2">
    <path class="cls-1" d="M122.92,56.53c0-12.56-10.19-22.75-22.75-22.75-.04,0-.07,0-.11,0,.07-.42.11-.84.11-1.28,0-4.42-3.58-8-8-8-1.16,0-2.25.25-3.24.69C82.67,10.39,68.01,0,50.92,0,28.14,0,9.67,18.47,9.67,41.25c0,8.04,2.31,15.53,6.28,21.87-9.09,1.77-15.96,9.77-15.96,19.38,0,10.91,8.84,19.75,19.75,19.75,4.21,0,8.11-1.33,11.31-3.57,3.2,4.22,8.24,6.95,13.94,6.95,5.36,0,10.15-2.42,13.36-6.21.91,9.39,1.37,18.84.5,28.05-.75,7.95-3.24,22.93-8.76,30.87-4.24,6.11-10.61,6.79-10.61,6.79l37.23.19s-4.6-3.18-5.86-9.71c-3.48-18-5.24-37.99-6.06-57.65,5.1,4.69,11.9,7.55,19.37,7.55,15.81,0,28.62-12.82,28.62-28.62,0-.47-.01-.94-.04-1.4,6.12-4.08,10.16-11.04,10.16-18.95Z"/>
  </g>
</svg>