<?xml version="1.0" encoding="UTF-8"?>
<svg id="Layer_2" data-name="Layer 2" xmlns="http://www.w3.org/2000/svg" viewBox="0 0 188.41 446.48">
  <defs>
    <style>
      .cls-1 {
        isolation: isolate;
        opacity: .8;
      }

      .cls-1, .cls-2 {
        fill: #000;
        stroke-width: 0px;
      }
    </style>
  </defs>
  <path class="cls-2" d="M135.41,209.11s0-.03,0-.05c30.64-14.94,52.11-45.97,52.99-82.4C189.67,73.6,134.91,0,134.91,0,134.91,0,2.53,18.24.03,122.12c-1.06,44.04,28.32,81.65,68.92,92.94-13.87,23.97-29.39,55-36.7,81.98-6.6,24.33-6.89,39.49,1.08,58.04,10.09,23.49,35.79,31.32,62.08,31.95,24.5.59,58.42-4.79,70.61-26.05,13.94-24.29,6.82-46.77-.46-67.04-6.19-17.24-23.33-59.67-30.14-84.83h0ZM96.79,153.14c5.43.13,9.72,4.64,9.59,10.06s-4.64,9.72-10.06,9.59-9.72-4.64-9.59-10.06,4.64-9.72,10.06-9.59ZM47.18,171.61c-5.43-.13-9.72-4.64-9.59-10.06s4.64-9.72,10.07-9.59,9.72,4.64,9.59,10.06-4.64,9.72-10.06,9.59h0Z"/>
  <path class="cls-1" d="M76.27,445.52l-15.38-4.16c-3.02-.82-5.05-3.66-4.82-6.78l4.52-63.9c.27-3.76,3.65-6.53,7.39-6.03l35.5,4.73c4.2.56,6.78,4.91,5.24,8.86l-24.64,63.34c-1.21,3.12-4.58,4.82-7.82,3.95h0Z"/>
  <path class="cls-1" d="M159.08,442.37l-15.45,3.91c-3.03.77-6.19-.72-7.52-3.54l-27.41-57.91c-1.61-3.41-.01-7.48,3.48-8.88l33.26-13.29c3.94-1.57,8.32.96,8.91,5.16l9.59,67.28c.48,3.31-1.63,6.45-4.87,7.27h0Z"/>
</svg>