<?xml version="1.0" encoding="UTF-8"?>
<svg id="Layer_2" data-name="Layer 2" xmlns="http://www.w3.org/2000/svg" viewBox="0 0 188.41 453.89">
  <defs>
    <style>
      .cls-1 {
        opacity: .8;
      }

      .cls-1, .cls-2, .cls-3 {
        fill: #000;
        stroke-width: 0px;
      }

      .cls-2 {
        opacity: .9;
      }
    </style>
  </defs>
  <g id="Layer_3" data-name="Layer 3">
    <path class="cls-3" d="M135.41,209.11s0-.03-.01-.05c30.64-14.94,52.11-45.97,52.99-82.4C189.67,73.6,134.91,0,134.91,0,134.91,0,2.53,18.24.03,122.12c-1.06,44.04,28.32,81.65,68.92,92.94-13.87,23.97-29.39,55-36.7,81.98-6.6,24.33-6.89,39.49,1.08,58.04,10.09,23.49,35.79,31.32,62.08,31.95,24.5.59,58.42-4.79,70.61-26.05,13.94-24.29,6.82-46.77-.46-67.04-6.19-17.24-23.33-59.67-30.14-84.83ZM96.79,153.14c5.43.13,9.72,4.64,9.59,10.06s-4.64,9.72-10.06,9.59-9.72-4.64-9.59-10.06,4.64-9.72,10.06-9.59ZM47.18,171.61c-5.43-.13-9.72-4.64-9.59-10.06s4.64-9.72,10.07-9.59,9.72,4.64,9.59,10.06-4.64,9.72-10.06,9.59Z"/>
    <path class="cls-2" d="M90.73,453.88l-15.9-1c-3.12-.2-5.67-2.58-6.08-5.68l-9.25-70.43,42.68-2.94c4.23-.29,7.62,3.46,6.9,7.64l-11.49,66.98c-.57,3.3-3.53,5.64-6.87,5.43Z"/>
    <path class="cls-1" d="M150.39,294.13c.43,1.25.76,2.54.98,3.84,1.04,6.29,2.1,22.81-14.33,26.68-14.19,3.34-21.2-6.37-23.99-11.97-.88-1.77-1.51-3.66-1.92-5.59l-12.21-57.25c-2.11-9.89,2.23-19.31,10.22-22.18h0c9.05-3.26,19.49,2.96,23.22,13.83l18.03,52.65Z"/>
    <path class="cls-2" d="M132.63,452.99l-15.91.79c-3.13.16-5.93-1.92-6.68-4.96l-15.44-62.18c-.91-3.66,1.46-7.34,5.17-8.02l35.23-6.46c4.17-.77,7.96,2.58,7.72,6.81l-3.88,67.85c-.19,3.34-2.87,6-6.21,6.17Z"/>
  </g>
</svg>